<svg width="1280" height="760" viewBox="0 0 1280 760" fill="none" xmlns="http://www.w3.org/2000/svg">
  <defs>
    <style>
      .title { font: 700 32px 'Segoe UI', Arial, sans-serif; fill: #111827; }
      .subtitle { font: 400 17px 'Segoe UI', Arial, sans-serif; fill: #4B5563; }
      .section { font: 700 20px 'Segoe UI', Arial, sans-serif; fill: #111827; }
      .body { font: 400 14px 'Segoe UI', Arial, sans-serif; fill: #374151; }
      .small { font: 600 13px 'Segoe UI', Arial, sans-serif; fill: #334155; }
      .mono { font: 700 13px 'Consolas', 'Courier New', monospace; fill: #0F172A; }
      .line { stroke: #64748B; stroke-width: 3; stroke-linecap: round; stroke-linejoin: round; }
      .arrow { fill: #64748B; }
    </style>
    <filter id="shadow" x="-20%" y="-20%" width="140%" height="140%">
      <feDropShadow dx="0" dy="6" stdDeviation="8" flood-color="#0F172A" flood-opacity="0.10"/>
    </filter>
  </defs>

  <rect width="1280" height="760" rx="24" fill="#F8FAFC"/>
  <rect x="24" y="24" width="1232" height="712" rx="20" fill="#FFFFFF" stroke="#CBD5E1" stroke-width="2"/>

  <text x="56" y="74" class="title">ProxmoxMCP-Plus: one Proxmox control plane for LLMs, AI agents, MCP, and OpenAPI</text>
  <text x="56" y="102" class="subtitle">Use Claude Desktop, Open WebUI, or HTTP clients to drive real VM, LXC, snapshot, backup, restore, ISO, and SSH-backed workflows.</text>

  <rect x="56" y="144" width="254" height="186" rx="14" fill="#EFF6FF" stroke="#60A5FA" stroke-width="2" filter="url(#shadow)"/>
  <text x="82" y="182" class="section">LLM and MCP Clients</text>
  <rect x="82" y="198" width="202" height="32" rx="8" fill="#DBEAFE" stroke="#93C5FD"/>
  <text x="112" y="219" class="body">Claude Desktop</text>
  <rect x="82" y="240" width="202" height="32" rx="8" fill="#DBEAFE" stroke="#93C5FD"/>
  <text x="126" y="261" class="body">Open WebUI</text>
  <rect x="82" y="282" width="202" height="32" rx="8" fill="#DBEAFE" stroke="#93C5FD"/>
  <text x="123" y="303" class="body">Other MCP clients</text>

  <rect x="56" y="372" width="254" height="146" rx="14" fill="#F5F3FF" stroke="#A78BFA" stroke-width="2" filter="url(#shadow)"/>
  <text x="82" y="410" class="section">HTTP Consumers</text>
  <rect x="82" y="426" width="202" height="32" rx="8" fill="#EDE9FE" stroke="#C4B5FD"/>
  <text x="101" y="447" class="body">OpenAPI / Swagger UI</text>
  <rect x="82" y="468" width="202" height="32" rx="8" fill="#EDE9FE" stroke="#C4B5FD"/>
  <text x="104" y="489" class="body">Internal tools / scripts</text>

  <rect x="378" y="142" width="544" height="404" rx="16" fill="#F8FAFC" stroke="#0F766E" stroke-width="3" filter="url(#shadow)"/>
  <rect x="398" y="162" width="504" height="46" rx="10" fill="#CCFBF1" stroke="#5EEAD4"/>
  <text x="424" y="191" class="section">ProxmoxMCP-Plus service boundary</text>

  <rect x="418" y="228" width="216" height="82" rx="10" fill="#ECFEFF" stroke="#67E8F9"/>
  <text x="442" y="258" class="small">MCP server layer</text>
  <text x="442" y="280" class="body">stdio transport</text>
  <text x="442" y="298" class="body">assistant-facing tools</text>

  <rect x="664" y="228" width="216" height="82" rx="10" fill="#ECFDF5" stroke="#86EFAC"/>
  <text x="688" y="258" class="small">OpenAPI bridge</text>
  <text x="688" y="280" class="body">/docs, /openapi.json, /health</text>
  <text x="688" y="298" class="body">HTTP automation surface</text>

  <rect x="418" y="334" width="216" height="94" rx="10" fill="#FEFCE8" stroke="#FACC15"/>
  <text x="442" y="364" class="small">Operator workflows</text>
  <text x="442" y="386" class="body">VM and LXC lifecycle</text>
  <text x="442" y="404" class="body">snapshot, backup, restore, ISO</text>

  <rect x="664" y="334" width="216" height="94" rx="10" fill="#FEF2F2" stroke="#FCA5A5"/>
  <text x="688" y="364" class="small">Control and guardrails</text>
  <text x="688" y="386" class="body">token auth, command policy</text>
  <text x="688" y="404" class="body">logging and execution limits</text>

  <rect x="418" y="452" width="462" height="72" rx="10" fill="#F1F5F9" stroke="#94A3B8"/>
  <text x="442" y="480" class="small">Live-lab verified paths</text>
  <text x="442" y="504" class="body">VM | LXC | snapshot | backup | restore | ISO | SSH | OpenAPI | Docker</text>

  <rect x="974" y="164" width="248" height="318" rx="14" fill="#FFF7ED" stroke="#FB923C" stroke-width="2" filter="url(#shadow)"/>
  <text x="1000" y="202" class="section">Proxmox VE</text>
  <rect x="1000" y="220" width="196" height="44" rx="8" fill="#FFEDD5" stroke="#FDBA74"/>
  <text x="1046" y="247" class="body">Cluster API</text>
  <rect x="1000" y="280" width="196" height="44" rx="8" fill="#FFEDD5" stroke="#FDBA74"/>
  <text x="1057" y="307" class="body">Nodes</text>
  <rect x="1000" y="340" width="196" height="44" rx="8" fill="#FFEDD5" stroke="#FDBA74"/>
  <text x="1043" y="367" class="body">VMs and LXCs</text>
  <rect x="1000" y="400" width="196" height="44" rx="8" fill="#FFEDD5" stroke="#FDBA74"/>
  <text x="1034" y="427" class="body">Storage and backups</text>

  <rect x="378" y="586" width="844" height="114" rx="16" fill="#F8FAFC" stroke="#94A3B8" stroke-width="2" filter="url(#shadow)"/>
  <text x="406" y="624" class="section">Typical operator path</text>
  <text x="406" y="650" class="body">1. An LLM, AI agent, or HTTP client requests a Proxmox action.</text>
  <text x="406" y="672" class="body">2. ProxmoxMCP-Plus applies auth and policy, then executes the workflow.</text>
  <text x="406" y="694" class="body">3. The same result can be returned to MCP clients and HTTP consumers.</text>

  <line x1="310" y1="238" x2="378" y2="238" class="line"/>
  <polygon points="378,238 364,230 364,246" class="arrow"/>
  <line x1="310" y1="446" x2="378" y2="446" class="line"/>
  <polygon points="378,446 364,438 364,454" class="arrow"/>
  <line x1="634" y1="268" x2="664" y2="268" class="line"/>
  <polygon points="664,268 650,260 650,276" class="arrow"/>
  <line x1="880" y1="280" x2="974" y2="280" class="line"/>
  <polygon points="974,280 960,272 960,288" class="arrow"/>
  <line x1="880" y1="382" x2="974" y2="382" class="line"/>
  <polygon points="974,382 960,374 960,390" class="arrow"/>

  <text x="432" y="142" class="mono">MCP / HTTP</text>
  <text x="928" y="150" class="mono">Proxmox REST API</text>
</svg>
